{"title":"Selena Gomez &amp; The Scene - Who Says [Music Video] 720p [Sbyk","uid":9418764,"size":32927516,"categoryP":"video","categoryS":"music_videos","magnet":"?xt=urn:btih:a3d3a1e551c27d777ad329e7d04cf7619c7ff079&amp;dn=Selena+Gomez+%26amp%3B+The+Scene+-+Who+Says+%5BMusic+Video%5D+720p+%5BSbyk&amp;tr=udp%3A%2F%2Ftracker.openbittorrent.com%3A80&amp;tr=udp%3A%2F%2Fopen.demonii.com%3A1337&amp;tr=udp%3A%2F%2Ftracker.coppersurfer.tk%3A6969&amp;tr=udp%3A%2F%2Fexodus.desync.com%3A6969","seeders":2,"leechers":0,"uploader":"Sbyky","files":1,"time":1388512547,"description":"\n\nGeneral\nComplete name                            : Selena Gomez &amp; The Scene - Who Says [Music Video] 720p [Sbyky].mp4\nFormat                                   : MPEG-4\nFormat profile                           : Base Media\nCodec ID                                 : isom\nFile size                                : 31.4 MiB\nDuration                                 : 3mn 20s\nOverall bit rate mode                    : Variable\nOverall bit rate                         : 1 314 Kbps\nEncoded date                             : UTC 2013-12-03 04:41:24\nTagged date                              : UTC 2013-12-03 04:41:24\n\nVideo\nID                                       : 1\nFormat                                   : AVC\nFormat/Info                              : Advanced Video Codec\nFormat profile                           : &lt;a class=&quot;__cf_email__&quot; href=&quot;/cdn-cgi/l/email-protection&quot; data-cfemail=&quot;591438303719156a7768&quot;&gt;[email&amp;#160;protected]&lt;/a&gt;&lt;script cf-hash='f9e31' type=&quot;text/javascript&quot;&gt;\n/* &lt;![CDATA[ */!function(){try{var t=&quot;currentScript&quot;in document?document.currentScript:function(){for(var t=document.getElementsByTagName(&quot;script&quot;),e=t.length;e--;)if(t[e].getAttribute(&quot;cf-hash&quot;))return t[e]}();if(t&amp;&amp;t.previousSibling){var e,r,n,i,c=t.previousSibling,a=c.getAttribute(&quot;data-cfemail&quot;);if(a){for(e=&quot;&quot;,r=parseInt(a.substr(0,2),16),n=2;a.length-n;n+=2)i=parseInt(a.substr(n,2),16)^r,e+=String.fromCharCode(i);e=document.createTextNode(e),c.parentNode.replaceChild(e,c)}}}catch(u){}}();/* ]]&gt; */&lt;/script&gt;\nFormat settings, CABAC                   : Yes\nFormat settings, ReFrames                : 3 frames\nCodec ID                                 : avc1\nCodec ID/Info                            : Advanced Video Coding\nDuration                                 : 3mn 20s\nBit rate                                 : 1 186 Kbps\nWidth                                    : 1 280 pixels\nHeight                                   : 720 pixels\nDisplay aspect ratio                     : 16:9\nFrame rate mode                          : Constant\nFrame rate                               : 30.000 fps\nColor space                              : YUV\nChroma subsampling                       : 4:2:0\nBit depth                                : 8 bits\nScan type                                : Progressive\nBits/(Pixel*Frame)                       : 0.043\nStream size                              : 28.3 MiB (90%)\nEncoded date                             : UTC 2013-12-03 04:41:24\nTagged date                              : UTC 2013-12-03 04:41:24\n\nAudio\nID                                       : 2\nFormat                                   : AAC\nFormat/Info                              : Advanced Audio Codec\nFormat profile                           : LC\nCodec ID                                 : 40\nDuration                                 : 3mn 20s\nBit rate mode                            : Variable\nBit rate                                 : 126 Kbps\nChannel(s)                               : 2 channels\nChannel positions                        : Front: L R\nSampling rate                            : 44.1 KHz\nCompression mode                         : Lossy\nDelay relative to video                  : 33ms\nStream size                              : 3.00 MiB (10%)\nEncoded date                             : UTC 2013-12-03 04:40:18\nTagged date                              : UTC 2013-12-03 04:40:18\n\nShared By Sbyky\n","torrent":{"xt":"urn:btih:a3d3a1e551c27d777ad329e7d04cf7619c7ff079","amp;dn":"Selena+Gomez+%26amp%3B+The+Scene+-+Who+Says+%5BMusic+Video%5D+720p+%5BSbyk","amp;tr":["udp%3A%2F%2Ftracker.openbittorrent.com%3A80","udp%3A%2F%2Fopen.demonii.com%3A1337","udp%3A%2F%2Ftracker.coppersurfer.tk%3A6969","udp%3A%2F%2Fexodus.desync.com%3A6969"],"infoHash":"a3d3a1e551c27d777ad329e7d04cf7619c7ff079","infoHashBuffer":{"type":"Buffer","data":[163,211,161,229,81,194,125,119,122,211,41,231,208,76,247,97,156,127,240,121]},"announce":[],"urlList":[]}}